# xmcd CD database file
#
# Track frame offsets:
#	150
#	23119
#	42755
#	72538
#	102201
#	128483
#	156687
#	172318
#	196852
#	221385
#	257080
#	294526
#
# Disc length: 4352 seconds
#
# Revision: 0
# Processed by: cddbd v1.4PL0 Copyright (c) Steve Scherf et al.
# Submitted via: CDex 1.50beta9
#
DISCID=b210fe0c
DTITLE=Lito Vitale Quinteto - Un solo destino
DYEAR=2002
DGENRE=New Age
TTITLE0=Un solo destino
TTITLE1=Antes de la razón
TTITLE2=La única mirada
TTITLE3=El principio del cielo
TTITLE4=El regreso
TTITLE5=Desde casa
TTITLE6=Introducción porteña, desesperadísima
TTITLE7=El discreto encanto de ser porteño
TTITLE8=Continuo viaje
TTITLE9=Cuentos de la media luna
TTITLE10=Xeito novo
TTITLE11=Datos
EXTD=YEAR: 2002
EXTT0=
EXTT1=
EXTT2=
EXTT3=
EXTT4=
EXTT5=
EXTT6=
EXTT7=
EXTT8=
EXTT9=
EXTT10=
EXTT11=
PLAYORDER=
